<?xml version="1.0" encoding="UTF-8"?>
<svg version="1.1" xmlns="http://www.w3.org/2000/svg" width="343" height="411">
<path d="M0 0 C113.19 0 226.38 0 343 0 C343 135.63 343 271.26 343 411 C229.81 411 116.62 411 0 411 C0 275.37 0 139.74 0 0 Z " fill="#FCFCFC" transform="translate(0,0)"/>
<path d="M0 0 C0 0.66 0 1.32 0 2 C1.27875 2.268125 2.5575 2.53625 3.875 2.8125 C9.00062417 3.9451896 13.99289488 5.43201301 19 7 C19 7.66 19 8.32 19 9 C21.64 9.33 24.28 9.66 27 10 C27 10.66 27 11.32 27 12 C28.11375 12.2475 29.2275 12.495 30.375 12.75 C34 14 34 14 35.1875 16 C35.5896875 16.99 35.5896875 16.99 36 18 C37.79932579 19.06716704 37.79932579 19.06716704 40 20 C57.70736776 31.22906248 74.11864553 45.57642835 86 63 C86.61746094 63.89976563 87.23492187 64.79953125 87.87109375 65.7265625 C90.25289292 69.38885187 92.42581333 73.12893708 94.5625 76.9375 C94.94857422 77.61490234 95.33464844 78.29230469 95.73242188 78.99023438 C98.12255974 83.23710625 100.15416479 87.48974179 102 92 C102.350625 92.81984375 102.70125 93.6396875 103.0625 94.484375 C105.2447282 99.75809316 106.91505124 105.02089591 108.3515625 110.54296875 C109.10825251 113.41018571 110.04451043 116.19324938 111 119 C111.53021285 120.64283567 112.05013201 122.28901167 112.5625 123.9375 C112.81128906 124.73027344 113.06007813 125.52304688 113.31640625 126.33984375 C114.92467906 132.59832253 115.14877027 138.73744066 115.1328125 145.15234375 C115.13424759 146.44078941 115.13424759 146.44078941 115.13571167 147.75526428 C115.13638893 149.5629992 115.13456649 151.37073662 115.13037109 153.1784668 C115.12502302 155.92567483 115.13032819 158.67271891 115.13671875 161.41992188 C115.13605776 163.18489619 115.13477617 164.9498704 115.1328125 166.71484375 C115.13483673 167.52654526 115.13686096 168.33824677 115.13894653 169.17454529 C115.11857268 174.2007357 114.71550776 179.02377495 114 184 C113.34 184 112.68 184 112 184 C112.061875 185.546875 112.061875 185.546875 112.125 187.125 C112.00187965 190.94173083 111.23868755 193.42966529 110 197 C109.77796273 198.9983354 109.55620747 200.99671716 109.34375 202.99609375 C108.79140714 206.21600153 107.32602927 209.02969445 106 212 C105.23287865 214.65218174 104.61434006 217.30635511 104 220 C103.34 220 102.68 220 102 220 C101.72736328 220.8353125 101.72736328 220.8353125 101.44921875 221.6875 C100.64494222 224.12920104 99.82308216 226.56457881 99 229 C98.74863281 229.7734375 98.49726563 230.546875 98.23828125 231.34375 C97.58145774 233.26209167 96.79873895 235.13627578 96 237 C95.01 237.33 94.02 237.66 93 238 C92.896875 238.763125 92.79375 239.52625 92.6875 240.3125 C91.8985662 243.39651393 91.19878825 243.80613074 89 246 C87.43381011 248.17400727 85.89722874 250.35832927 84.375 252.5625 C80.57984815 257.97205966 76.56006658 262.96388888 72.04296875 267.80078125 C70.13621016 269.85337224 68.34402005 271.96388245 66.5625 274.125 C65.716875 275.07375 64.87125 276.0225 64 277 C63.34 277 62.68 277 62 277 C61.67 277.99 61.34 278.98 61 280 C58.86966917 281.86403947 56.74649608 283.60006891 54.5 285.3125 C53.86578125 285.80161865 53.2315625 286.2907373 52.578125 286.79467773 C45.96812352 291.85378074 39.9748165 296.40818464 32 299 C31.67 299.99 31.34 300.98 31 302 C29.13671875 302.9921875 29.13671875 302.9921875 26.6875 303.875 C25.78128906 304.21402344 24.87507812 304.55304688 23.94140625 304.90234375 C22.97074219 305.26457031 22.00007812 305.62679688 21 306 C19.03787005 306.8032881 17.07957927 307.61601016 15.125 308.4375 C14.11308594 308.85644531 13.10117188 309.27539062 12.05859375 309.70703125 C10.05979295 310.55199046 8.07193022 311.42343964 6.09765625 312.32421875 C-0.69501505 315.36040606 -7.3168556 317.07182973 -14.60546875 318.37890625 C-17.16699733 318.84758639 -19.57225529 319.39445712 -22.0625 320.125 C-34.77074834 323.36277028 -49.33929202 322 -62 322 C-62 300.22 -62 278.44 -62 256 C-54.74 256 -47.48 256 -40 256 C-40 270.19 -40 284.38 -40 299 C-21.6646246 297.40657241 -21.6646246 297.40657241 -3 292 C-2.67 251.08 -2.34 210.16 -2 168 C-32.69 168 -63.38 168 -95 168 C-95 189.12 -95 210.24 -95 232 C-102.26 232 -109.52 232 -117 232 C-117 166.33 -117 100.66 -117 33 C-121.25220747 34.70088299 -124.47361668 36.49114985 -128.23046875 38.9765625 C-130 40 -130 40 -132 40 C-132 40.66 -132 41.32 -132 42 C-133.50074786 43.13934327 -135.05444073 44.2089953 -136.625 45.25 C-147.8594018 53.21858732 -160.06466421 64.40140988 -166 77 C-166.66 77 -167.32 77 -168 77 C-168.0825 77.7425 -168.165 78.485 -168.25 79.25 C-169 82 -169 82 -170.90625 83.8125 C-173.33245072 86.34733658 -174.14651165 88.43953496 -175.25 91.75 C-175.58515625 92.73484375 -175.9203125 93.7196875 -176.265625 94.734375 C-176.50796875 95.48203125 -176.7503125 96.2296875 -177 97 C-177.66 97 -178.32 97 -179 97 C-179.66 99.97 -180.32 102.94 -181 106 C-181.66 106 -182.32 106 -183 106 C-183.18755859 107.00740234 -183.18755859 107.00740234 -183.37890625 108.03515625 C-183.96632744 110.83926116 -184.68106921 113.59206868 -185.40942383 116.36206055 C-192.00611768 142.28831781 -194.22433515 175.85519598 -183.828125 200.9609375 C-182.71190816 203.70935821 -181.764565 206.50323777 -180.8125 209.3125 C-180.46832031 210.31925781 -180.12414062 211.32601562 -179.76953125 212.36328125 C-179 215 -179 215 -179 218 C-178.34 218 -177.68 218 -177 218 C-176.78085938 218.53367188 -176.56171875 219.06734375 -176.3359375 219.6171875 C-167.2165958 241.04393344 -149.49641299 263.41989346 -128.90625 274.73828125 C-128.2771875 275.15464844 -127.648125 275.57101562 -127 276 C-127 276.66 -127 277.32 -127 278 C-126.2575 278.268125 -125.515 278.53625 -124.75 278.8125 C-122 280 -122 280 -119.9375 281.5625 C-117.92312271 283.05703799 -116.44506011 283.56338212 -114 284 C-114.75063089 288.02703328 -116.57216971 291.54831572 -118.375 295.1875 C-118.83132812 296.14946289 -118.83132812 296.14946289 -119.296875 297.13085938 C-120.11933313 298.79510691 -121.05372486 300.40290244 -122 302 C-125.93670488 303.31223496 -128.12488144 302.24296256 -132 301 C-132 300.34 -132 299.68 -132 299 C-133.8253125 298.6596875 -133.8253125 298.6596875 -135.6875 298.3125 C-140.08247816 297.49309729 -141.93917125 295.16502718 -145 292 C-148.46170804 289.03545934 -152.03401103 286.2030035 -155.5859375 283.34765625 C-163.81450852 276.66194229 -170.52515155 269.38460173 -177 261 C-177.91072266 259.83791016 -177.91072266 259.83791016 -178.83984375 258.65234375 C-183 253.25882353 -183 253.25882353 -183 251 C-183.66 251 -184.32 251 -185 251 C-187.31510622 248.40708103 -188.19759209 246.32426135 -189 243 C-189.66 242.67 -190.32 242.34 -191 242 C-191.68915127 240.41495208 -192.37031534 238.82605321 -193.015625 237.22265625 C-194.59342256 233.66008953 -196.56612039 230.32065943 -198.5 226.94140625 C-200.31470499 223.38288319 -201.67039812 219.76157875 -203 216 C-203.2475 215.30688721 -203.495 214.61377441 -203.75 213.8996582 C-215.45380217 180.71983622 -216.75322792 144.88768602 -207 111 C-206.76410156 110.02289063 -206.52820313 109.04578125 -206.28515625 108.0390625 C-204.77140081 101.7869838 -202.39546158 96.42032772 -199.41796875 90.72265625 C-197.44005114 86.92483649 -195.81123927 83.03629252 -194.2265625 79.05859375 C-192.20383883 74.10191942 -192.20383883 74.10191942 -190 73 C-189.73058594 72.30003906 -189.46117187 71.60007812 -189.18359375 70.87890625 C-187.6461985 67.13943332 -185.46327962 64.17125408 -183.0625 60.9375 C-182.57740967 60.28136719 -182.09231934 59.62523438 -181.5925293 58.94921875 C-175.14202307 50.36379566 -168.03803837 42.3706409 -159.75390625 35.5 C-157.93197982 33.98749153 -157.93197982 33.98749153 -156.14453125 32.09765625 C-153.62471144 29.63291447 -150.94202413 27.5556441 -148.125 25.4375 C-147.11695313 24.67308594 -146.10890625 23.90867187 -145.0703125 23.12109375 C-142.13397986 21.0925586 -139.22366131 19.51809299 -136 18 C-134.9171875 17.4121875 -134.9171875 17.4121875 -133.8125 16.8125 C-132 16 -132 16 -129 16 C-129 15.01 -129 14.02 -129 13 C-121.8174313 9.2656999 -114.51446397 6.00786716 -107 3 C-106.25492187 2.69964844 -105.50984375 2.39929687 -104.7421875 2.08984375 C-97.66142334 -0.67304266 -90.45596905 -2.15851564 -83.00390625 -3.53515625 C-81.01282755 -3.8108281 -81.01282755 -3.8108281 -80 -5 C-53.91568805 -9.01071912 -25.09529901 -8.84396047 0 0 Z " fill="#272526" transform="translate(221,13)"/>
<path d="M0 0 C0 0.66 0 1.32 0 2 C0.6290625 2.09796875 1.258125 2.1959375 1.90625 2.296875 C7.19831264 3.22139197 11.6012571 4.49338859 16.30859375 7.09765625 C18.16189894 8.14704013 18.16189894 8.14704013 21 9 C22.66666667 10.66666667 24.33333333 12.33333333 26 14 C29.59434614 16.89627065 33.31262339 19.5552269 37.1875 22.0625 C40.18601564 24.12814411 42.44535812 26.40498303 45 29 C46.03545456 30.0049854 47.07329775 31.00751448 48.11328125 32.0078125 C49.17975458 33.04680615 50.24616017 34.08586933 51.3125 35.125 C51.86228516 35.64964844 52.41207031 36.17429688 52.97851562 36.71484375 C54.37661756 38.0868941 55.69510685 39.53901915 57 41 C57 41.99 57 42.98 57 44 C57.58265625 44.23460937 58.1653125 44.46921875 58.765625 44.7109375 C67.34194904 49.65881675 71.98463422 62.41853463 76.05712891 71.04736328 C76.69806074 72.37469958 77.36285264 73.69072135 78.04833984 74.99560547 C80.43097744 79.53885462 81.91316418 83.76008782 83.125 88.75 C84.21842367 93.52496312 84.21842367 93.52496312 86.046875 98.03125 C93.76387107 113.97127466 90.99869771 148.25678982 87 165 C86.03228234 167.34690583 85.03374501 169.68141946 84 172 C83.50965718 173.55275227 83.047635 175.11496849 82.625 176.6875 C80.50167672 183.98017053 77.76570158 191.20586976 73.875 197.75 C72.36236335 200.37190352 71.40032825 202.55136896 70.4375 205.375 C69.963125 206.57125 69.48875 207.7675 69 209 C68.01 209.33 67.02 209.66 66 210 C63.92233068 212.77022576 62.25485717 215.30339041 61.0625 218.5625 C59.6510855 221.80045092 57.63812926 223.6916369 55 226 C54.34 226 53.68 226 53 226 C52.78988281 226.53367187 52.57976562 227.06734375 52.36328125 227.6171875 C50.46616703 230.93306049 47.875719 233.45303384 45.1875 236.125 C44.66607422 236.66253906 44.14464844 237.20007813 43.60742188 237.75390625 C40.53680758 240.82835402 38.1096717 242.45057261 34 244 C33.67 244.99 33.34 245.98 33 247 C30.85546875 248.5 30.85546875 248.5 28.1875 250 C25.60904735 251.46251967 23.19117196 252.84901959 20.86328125 254.6875 C19 256 19 256 16 256 C16 190 16 124 16 56 C5.605 56.495 5.605 56.495 -5 57 C-5.33 78.12 -5.66 99.24 -6 121 C-36.69 121 -67.38 121 -99 121 C-99 80.41 -99 39.82 -99 -2 C-96.03 -2.99 -93.06 -3.98 -90 -5 C-89.01 -5.66 -88.02 -6.32 -87 -7 C-58.5204212 -13.28395565 -26.79854098 -11.89120253 0 0 Z " fill="#FDFDFD" transform="translate(225,38)"/>
<path d="M0 0 C1.65 0 3.3 0 5 0 C5 1.32 5 2.64 5 4 C5.825 3.34 6.65 2.68 7.5 2 C10.55278128 0.00312189 13.24988147 -0.70289009 16.96875 -0.53125 C20.78315907 0.46636468 23.42250467 3.11619363 26 6 C27.50156874 9.00313748 27.09281204 11.79067522 27.0625 15.125 C27.05347656 16.40632813 27.04445313 17.68765625 27.03515625 19.0078125 C27.02355469 19.99523437 27.01195312 20.98265625 27 22 C26.34 22 25.68 22 25 22 C24.67 22.99 24.34 23.98 24 25 C23.34 25 22.68 25 22 25 C21.67 25.99 21.34 26.98 21 28 C17.42365687 29.19211438 14.75935317 29.25926574 11 29 C9.35 28.01 7.7 27.02 6 26 C6 30.62 6 35.24 6 40 C4.35 40 2.7 40 1 40 C0 39 0 39 -0.11352539 35.30639648 C-0.11336624 33.66128708 -0.10766988 32.01617269 -0.09765625 30.37109375 C-0.0962413 29.50686295 -0.09482635 28.64263214 -0.09336853 27.75221252 C-0.08775239 24.98060708 -0.07519719 22.2090812 -0.0625 19.4375 C-0.05748708 17.5631522 -0.05292381 15.68880315 -0.04882812 13.81445312 C-0.03777772 9.20960456 -0.0205023 4.60481579 0 0 Z " fill="#363535" transform="translate(277,370)"/>
<path d="M0 0 C1.65 0 3.3 0 5 0 C5 0.99 5 1.98 5 3 C5.804375 2.484375 6.60875 1.96875 7.4375 1.4375 C11.98563907 -0.39771401 15.30318489 -0.28881298 20 1 C23.46121174 3.16325734 24.70741598 4.12224793 26 8 C26.11979145 9.95566503 26.17528496 11.91570766 26.1875 13.875 C26.20167969 14.90367187 26.21585937 15.93234375 26.23046875 16.9921875 C25.92064459 21.03565534 24.68550489 23.89723126 22.5625 27.3125 C18.44844789 30.02175383 13.79200041 29.65414609 9 29 C8.34 28.34 7.68 27.68 7 27 C6.67 30.96 6.34 34.92 6 39 C4.02 39 2.04 39 0 39 C0 26.13 0 13.26 0 0 Z " fill="#686667" transform="translate(245,370)"/>
<path d="M0 0 C1.4540625 0.0309375 1.4540625 0.0309375 2.9375 0.0625 C12.21761294 22.31675143 12.21761294 22.31675143 11.9375 31.0625 C12.5975 31.0625 13.2575 31.0625 13.9375 31.0625 C15.4158226 34.01914519 14.99782783 36.80479737 14.9375 40.0625 C13.2875 40.0625 11.6375 40.0625 9.9375 40.0625 C8.9475 36.1025 7.9575 32.1425 6.9375 28.0625 C1.9875 28.0625 -2.9625 28.0625 -8.0625 28.0625 C-8.371875 29.485625 -8.68125 30.90875 -9 32.375 C-9.57449363 35.01767072 -10.20552306 37.49156918 -11.0625 40.0625 C-12.7125 40.0625 -14.3625 40.0625 -16.0625 40.0625 C-14.831274 31.08601696 -12.12000116 22.91931363 -9 14.4375 C-8.53507663 13.1473985 -8.0708794 11.85703507 -7.60742188 10.56640625 C-3.80398469 0.07763234 -3.80398469 0.07763234 0 0 Z " fill="#323031" transform="translate(224.0625,358.9375)"/>
<path d="M0 0 C1.65 0 3.3 0 5 0 C5 5.94 5 11.88 5 18 C10.94 18 16.88 18 23 18 C23 12.06 23 6.12 23 0 C24.65 0 26.3 0 28 0 C28 13.2 28 26.4 28 40 C26.35 40 24.7 40 23 40 C23 34.06 23 28.12 23 22 C17.06 22 11.12 22 5 22 C5 27.94 5 33.88 5 40 C3.35 39.67 1.7 39.34 0 39 C0 26.13 0 13.26 0 0 Z " fill="#383838" transform="translate(42,359)"/>
<path d="M0 0 C3.51964045 1.98407377 5.69850196 4.09550588 7 8 C7 10.64 7 13.28 7 16 C0.73 16 -5.54 16 -12 16 C-11.38424606 19.89539751 -11.38424606 19.89539751 -9.328125 21.70703125 C-6.39006947 23.33873659 -4.09368617 23.50577793 -0.75 23.6875 C0.32765625 23.75324219 1.4053125 23.81898438 2.515625 23.88671875 C3.33546875 23.92410156 4.1553125 23.96148437 5 24 C4.67 25.65 4.34 27.3 4 29 C-8.89298556 29.68864611 -8.89298556 29.68864611 -12.6875 27.1875 C-15.22368119 24.78840968 -16.86124622 23.11543622 -17.30078125 19.58203125 C-17.32715468 13.349111 -16.97042651 8.54479616 -14 3 C-9.78010245 -0.14038887 -5.1358759 -1.11294329 0 0 Z " fill="#757474" transform="translate(94,370)"/>
<path d="M0 0 C1.65 0 3.3 0 5 0 C5.33 4.62 5.66 9.24 6 14 C6.99 13.34 7.98 12.68 9 12 C13.66085946 11.54894908 15.89870976 11.3439122 19.9375 13.75 C23.13523912 17.23844267 23.12575402 20.37634087 23.09765625 24.984375 C23.09443359 25.91894531 23.09121094 26.85351562 23.08789062 27.81640625 C23.07951172 28.78449219 23.07113281 29.75257813 23.0625 30.75 C23.05798828 31.73355469 23.05347656 32.71710938 23.04882812 33.73046875 C23.03706483 36.15370791 23.02062684 38.57682273 23 41 C21.02 41 19.04 41 17 41 C16.97494385 40.44538086 16.9498877 39.89076172 16.92407227 39.31933594 C16.80772073 36.79601157 16.68517246 34.27302464 16.5625 31.75 C16.52318359 30.87730469 16.48386719 30.00460937 16.44335938 29.10546875 C16.40146484 28.26113281 16.35957031 27.41679687 16.31640625 26.546875 C16.27974854 25.77182617 16.24309082 24.99677734 16.20532227 24.19824219 C16.00396985 22.0425024 15.58270703 20.08198525 15 18 C11.65747276 17.92572162 9.1964086 17.93453047 6 19 C5.67 26.26 5.34 33.52 5 41 C3.35 41 1.7 41 0 41 C0 27.47 0 13.94 0 0 Z " fill="#484848" transform="translate(168,358)"/>
<path d="M0 0 C0.66 0 1.32 0 2 0 C2 65.34 2 130.68 2 198 C2.99 198.33 3.98 198.66 5 199 C3.35 199.33 1.7 199.66 0 200 C0 134 0 68 0 0 Z " fill="#D6D6D6" transform="translate(241,94)"/>
<path d="M0 0 C3.625 0.5625 3.625 0.5625 6.5625 2.4375 C9.46398364 6.83368733 9.63016594 10.43860531 8.625 15.5625 C7.29379443 18.53572126 6.27907397 19.41665296 3.625 21.5625 C0 22.25 0 22.25 -3.375 21.5625 C-6.22486729 17.90780908 -6.78471627 15.07676115 -6.75 10.5 C-6.75773438 9.47777344 -6.76546875 8.45554687 -6.7734375 7.40234375 C-6.10694573 2.65195635 -4.75834934 0.79305822 0 0 Z " fill="#ECECEC" transform="translate(257.375,373.4375)"/>
<path d="M0 0 C2.56073196 2.10111341 3.75849312 3.63877939 4.34375 6.9375 C4.54848994 11.44177874 3.78168361 14.32817764 1 18 C0 19 0 19 -3.3125 19.25 C-7.24715564 18.98324369 -8.34188734 18.79072999 -11 16 C-11.53125 12.96875 -11.53125 12.96875 -11.5 9.5 C-11.5103125 8.3553125 -11.520625 7.210625 -11.53125 6.03125 C-11 3 -11 3 -9.1875 1.125 C-5.9126415 -0.55921294 -3.61858266 -0.51694038 0 0 Z " fill="#F3F2F2" transform="translate(294,375)"/>
<path d="M0 0 C1.65 0 3.3 0 5 0 C5 2.64 5 5.28 5 8 C7.31 8 9.62 8 12 8 C12 9.32 12 10.64 12 12 C9.69 12 7.38 12 5 12 C5.33 18.6 5.66 25.2 6 32 C7.65 32.33 9.3 32.66 11 33 C11 33.99 11 34.98 11 36 C5.04296875 36.390625 5.04296875 36.390625 3 36 C0.28986556 33.09252567 -0.36867472 31.17108561 -0.29296875 27.234375 C-0.28330078 26.34492188 -0.27363281 25.45546875 -0.26367188 24.5390625 C-0.23853516 23.61867188 -0.21339844 22.69828125 -0.1875 21.75 C-0.16719727 20.34621094 -0.16719727 20.34621094 -0.14648438 18.9140625 C-0.11119954 16.60878673 -0.06190281 14.3046894 0 12 C-1.32 12 -2.64 12 -4 12 C-4 10.68 -4 9.36 -4 8 C-2.68 8 -1.36 8 0 8 C0 5.36 0 2.72 0 0 Z " fill="#353535" transform="translate(149,362)"/>
<path d="M0 0 C0.74121094 -0.03738281 1.48242188 -0.07476562 2.24609375 -0.11328125 C5.90757761 0.55974024 7.18070788 1.38522751 9.5625 4.3125 C10.18956804 8.40880163 10.03077004 12.43099924 9.875 16.5625 C9.85244141 17.68914062 9.82988281 18.81578125 9.80664062 19.9765625 C9.74774254 22.75655232 9.66554201 25.53385332 9.5625 28.3125 C8.9025 28.3125 8.2425 28.3125 7.5625 28.3125 C7.5625 27.3225 7.5625 26.3325 7.5625 25.3125 C6.36625 25.828125 5.17 26.34375 3.9375 26.875 C0.13066792 28.30847851 -2.46586335 28.57179943 -6.4375 27.3125 C-6.7675 26.6525 -7.0975 25.9925 -7.4375 25.3125 C-3.4775 24.6525 0.4825 23.9925 4.5625 23.3125 C5.2225 20.3425 5.8825 17.3725 6.5625 14.3125 C0.1275 14.8075 0.1275 14.8075 -6.4375 15.3125 C-6.7675 17.2925 -7.0975 19.2725 -7.4375 21.3125 C-8.0975 21.3125 -8.7575 21.3125 -9.4375 21.3125 C-9.375 18 -9.375 18 -8.4375 14.3125 C-3.69298019 11.37089772 -0.05604752 10.96850729 5.5625 11.3125 C4.9025 9.3325 4.2425 7.3525 3.5625 5.3125 C-0.3975 5.3125 -4.3575 5.3125 -8.4375 5.3125 C-8.4375 3.9925 -8.4375 2.6725 -8.4375 1.3125 C-5.59453154 0.51956322 -2.95065393 0.09716191 0 0 Z " fill="#2F2E2F" transform="translate(116.4375,369.6875)"/>
<path d="M0 0 C0.33 0 0.66 0 1 0 C1 7.59 1 15.18 1 23 C-0.98 22.67 -2.96 22.34 -5 22 C-5.99 22.33 -6.98 22.66 -8 23 C-13.20197044 23.49542576 -13.20197044 23.49542576 -16 23 C-18.5 20.875 -18.5 20.875 -20 18 C-20.25 14.6875 -20.25 14.6875 -20 12 C-19.34 11.67 -18.68 11.34 -18 11 C-18.33 12.32 -18.66 13.64 -19 15 C-18.34 15 -17.68 15 -17 15 C-16.67 13.02 -16.34 11.04 -16 9 C-13.00519083 8.1276588 -10.36424089 7.89170234 -7.25 7.9375 C-6.45078125 7.94652344 -5.6515625 7.95554687 -4.828125 7.96484375 C-4.22484375 7.97644531 -3.6215625 7.98804688 -3 8 C-2.75 14.625 -2.75 14.625 -5 18 C-7.6015625 18.73046875 -7.6015625 18.73046875 -10.625 19.1875 C-11.62789062 19.34605469 -12.63078125 19.50460937 -13.6640625 19.66796875 C-14.82035156 19.83232422 -14.82035156 19.83232422 -16 20 C-11.51709962 21.04253497 -9.15845051 20.91063942 -5 19 C-4.01 19 -3.02 19 -2 19 C-2 19.99 -2 20.98 -2 22 C-1.34 22 -0.68 22 0 22 C0 14.74 0 7.48 0 0 Z " fill="#525151" transform="translate(126,376)"/>
<path d="M0 0 C3 1 3 1 4.0625 3 C5.29702294 6.95047342 6.17008723 10.94755358 7 15 C7.66 15 8.32 15 9 15 C9.33 17.64 9.66 20.28 10 23 C10.66 23 11.32 23 12 23 C13.4783226 25.95664519 13.06032783 28.74229737 13 32 C11.35 32 9.7 32 8 32 C7.79503906 31.30132812 7.59007812 30.60265625 7.37890625 29.8828125 C7.10949219 28.97273438 6.84007812 28.06265625 6.5625 27.125 C6.29566406 26.22007812 6.02882812 25.31515625 5.75390625 24.3828125 C5.07386174 22.01724619 5.07386174 22.01724619 4 20 C1.28553021 19.68758545 -1.33909361 19.48663408 -4.0625 19.375 C-4.82111328 19.33632813 -5.57972656 19.29765625 -6.36132812 19.2578125 C-8.24047195 19.16326438 -10.12020336 19.08053244 -12 19 C-12.33 19.66 -12.66 20.32 -13 21 C-12.6875 17.625 -12.6875 17.625 -12 14 C-11.01 13.34 -10.02 12.68 -9 12 C-9 13.32 -9 14.64 -9 16 C-5.04 16 -1.08 16 3 16 C2.505 14.47375 2.01 12.9475 1.5 11.375 C0.31393087 7.45484664 -0.32590831 4.12817191 0 0 Z " fill="#424141" transform="translate(226,367)"/>
<path d="M0 0 C1.65 0 3.3 0 5 0 C5 13.2 5 26.4 5 40 C3.35 40 1.7 40 0 40 C0 26.8 0 13.6 0 0 Z " fill="#3A3939" transform="translate(135,358)"/>
<path d="M0 0 C7.1826087 -0.48695652 7.1826087 -0.48695652 10.9375 1.75 C14.13523912 5.23844267 14.12575402 8.37634087 14.09765625 12.984375 C14.09443359 13.91894531 14.09121094 14.85351562 14.08789062 15.81640625 C14.07951172 16.78449219 14.07113281 17.75257813 14.0625 18.75 C14.05798828 19.73355469 14.05347656 20.71710938 14.04882812 21.73046875 C14.03706483 24.15370791 14.02062684 26.57682273 14 29 C12.02 29 10.04 29 8 29 C7.92652344 27.02966797 7.92652344 27.02966797 7.8515625 25.01953125 C7.77650532 23.28383405 7.70095877 21.54815797 7.625 19.8125 C7.5940625 18.94818359 7.563125 18.08386719 7.53125 17.19335938 C7.32654611 12.74104978 7.06277067 9.05007413 5 5 C2.69 4.67 0.38 4.34 -2 4 C-1.34 2.68 -0.68 1.36 0 0 Z " fill="#5E5E5E" transform="translate(177,370)"/>
<path d="M0 0 C1.32 0 2.64 0 4 0 C4 0.99 4 1.98 4 3 C4.804375 2.484375 5.60875 1.96875 6.4375 1.4375 C10.97221108 -0.3922957 14.33217675 -0.41987019 19 1 C22.42104667 3.73683734 23.22542765 6.24311562 23.8125 10.4375 C24.08202763 14.10062552 23.82992407 17.40366236 23 21 C22.34 21 21.68 21 21 21 C20.93941406 20.24074219 20.87882812 19.48148437 20.81640625 18.69921875 C20.69072266 17.20841797 20.69072266 17.20841797 20.5625 15.6875 C20.48128906 14.70136719 20.40007812 13.71523438 20.31640625 12.69921875 C20.08187441 9.90624401 20.08187441 9.90624401 19 7 C15.55125931 4.47976642 12.14131613 4.55628756 8 5 C5.09322105 7.18531223 4.11732751 8.41937923 3.390625 12.015625 C3.34421875 13.08296875 3.2978125 14.1503125 3.25 15.25 C3.19328125 16.32765625 3.1365625 17.4053125 3.078125 18.515625 C3.05234375 19.33546875 3.0265625 20.1553125 3 21 C2.01 21 1.02 21 0 21 C0 14.07 0 7.14 0 0 Z " fill="#484848" transform="translate(246,370)"/>
<path d="M0 0 C0.90577559 3.0335674 1.05216716 5.531912 0.84375 8.68359375 C0.76302246 10.0593457 0.76302246 10.0593457 0.68066406 11.46289062 C0.62104492 12.44451172 0.56142578 13.42613281 0.5 14.4375 C-0.48623945 33.80699773 -0.1698379 52.74950353 7 71 C7.47256593 73.34032653 7.75223456 75.6214518 8 78 C5.68974923 74.53462385 4.87110385 71.3553358 3.78125 67.375 C3.04336868 64.77588035 3.04336868 64.77588035 1 62 C0.41523118 59.95470808 -0.0976865 57.88834248 -0.5625 55.8125 C-0.93568359 54.18248047 -0.93568359 54.18248047 -1.31640625 52.51953125 C-2.99193907 43.89293083 -3.21414466 35.52559463 -3.25 26.75 C-3.270625 25.50347656 -3.29125 24.25695312 -3.3125 22.97265625 C-3.34634075 14.87625573 -2.37993975 7.74288092 0 0 Z " fill="#888686" transform="translate(31,145)"/>
<path d="M0 0 C0.99 0 1.98 0 3 0 C2.34 2.64 1.68 5.28 1 8 C5.95 8 10.9 8 16 8 C15.67 5.69 15.34 3.38 15 1 C17 2.625 17 2.625 19 5 C19 6.98 19 8.96 19 11 C12.73 11 6.46 11 0 11 C-0.33 12.65 -0.66 14.3 -1 16 C-3.33046359 12.50430461 -3.16043718 11.49326743 -2.75 7.4375 C-2.66234375 6.46683594 -2.5746875 5.49617188 -2.484375 4.49609375 C-2 2 -2 2 0 0 Z " fill="#2E2C2D" transform="translate(81,374)"/>
<path d="M0 0 C1.88801974 2.83202961 2.96101651 5.26025619 4.125 8.4375 C4.65480469 9.85869141 4.65480469 9.85869141 5.1953125 11.30859375 C6 14 6 14 6 18 C2.37 18 -1.26 18 -5 18 C-3.85440314 11.65515584 -2.43143813 5.96807541 0 0 Z " fill="#ACABAB" transform="translate(223,365)"/>
<path d="M0 0 C1.32 0 2.64 0 4 0 C4.1820896 9.36749815 3.61326035 18.6587308 3 28 C2.01 28 1.02 28 0 28 C0 22.39 0 16.78 0 11 C-1.32 11 -2.64 11 -4 11 C-4 9.68 -4 8.36 -4 7 C-2.68 7 -1.36 7 0 7 C0 4.69 0 2.38 0 0 Z " fill="#312E2F" transform="translate(149,363)"/>
<path d="M0 0 C0.8125 1.625 0.8125 1.625 1 4 C-1.76958953 7.95655647 -3.73586527 9.86793264 -8 12 C-9.05771739 13.63064764 -10.05273046 15.30280873 -11 17 C-13.63637094 20.60304029 -16.31799572 23.45092011 -20 26 C-20.99 26 -21.98 26 -23 26 C-23.28875 26.61875 -23.5775 27.2375 -23.875 27.875 C-25.70629991 31.33412205 -26.81061477 31.94122527 -30.625 33.125 C-31.73875 33.41375 -32.8525 33.7025 -34 34 C-30.88150469 30.673605 -27.58373698 27.82419869 -24 25 C-14.90097491 17.79046318 -7.32436316 8.97825162 0 0 Z " fill="#C0BFC0" transform="translate(301,271)"/>
<path d="M0 0 C3.9348786 3.9348786 3.11732771 10.37480592 3.13894653 15.68650818 C3.1369223 16.50023392 3.13489807 17.31395966 3.1328125 18.15234375 C3.13376923 19.01130753 3.13472595 19.8702713 3.13571167 20.75526428 C3.13638893 22.5629992 3.13456649 24.37073662 3.13037109 26.1784668 C3.12502302 28.92567483 3.13032819 31.67271891 3.13671875 34.41992188 C3.13605776 36.18489619 3.13477617 37.9498704 3.1328125 39.71484375 C3.13483673 40.52654526 3.13686096 41.33824677 3.13894653 42.17454529 C3.11857268 47.2007357 2.71550776 52.02377495 2 57 C1.67 57 1.34 57 1 57 C0.67 38.19 0.34 19.38 0 0 Z " fill="#706E6F" transform="translate(333,140)"/>
<path d="M0 0 C7.08478702 -0.72048682 7.08478702 -0.72048682 10.9375 2.3125 C13.97003939 6.61542751 14.29146445 11.86574161 14 17 C13.00390625 19.83984375 13.00390625 19.83984375 12 22 C11.01 22 10.02 22 9 22 C8.95101563 21.11957031 8.90203125 20.23914063 8.8515625 19.33203125 C8.73941406 17.58986328 8.73941406 17.58986328 8.625 15.8125 C8.55539062 14.66394531 8.48578125 13.51539063 8.4140625 12.33203125 C8.01881734 9.15142635 7.51125359 6.81828372 6 4 C2.97017694 2.62810173 2.97017694 2.62810173 0 2 C0 1.34 0 0.68 0 0 Z " fill="#393939" transform="translate(289,371)"/>
<path d="M0 0 C0.66 0 1.32 0 2 0 C2 5.28 2 10.56 2 16 C2.66 16 3.32 16 4 16 C3.67 23.59 3.34 31.18 3 39 C2.01 39 1.02 39 0 39 C0 26.13 0 13.26 0 0 Z " fill="#232323" transform="translate(169,359)"/>
<path d="M0 0 C1.59842096 5.45403701 -0.40145759 9.62889749 -2 15 C3.28 15 8.56 15 14 15 C14 15.33 14 15.66 14 16 C9.38 16 4.76 16 0 16 C-0.309375 17.423125 -0.61875 18.84625 -0.9375 20.3125 C-1.51199363 22.95517072 -2.14302306 25.42906918 -3 28 C-4.65 28 -6.3 28 -8 28 C-6.76813722 18.16633676 -3.4405635 9.22893292 0 0 Z " fill="#656465" transform="translate(216,371)"/>
<path d="M0 0 C0 2.64 0 5.28 0 8 C-3.39620731 10.08997373 -6.05163095 10.2632246 -10 10 C-11 9 -11 9 -11.0625 5.4375 C-11.041875 4.303125 -11.02125 3.16875 -11 2 C-7.36576791 -0.32590854 -4.22911669 -0.16265833 0 0 Z " fill="#E5E4E4" transform="translate(122,385)"/>
<path d="M0 0 C1.65 0 3.3 0 5 0 C5 1.32 5 2.64 5 4 C5.825 3.34 6.65 2.68 7.5 2 C11.34492481 -0.61234126 14.45655064 -0.31334134 19 0 C19 0.33 19 0.66 19 1 C16.69 1 14.38 1 12 1 C12 1.66 12 2.32 12 3 C13.423125 3.12375 13.423125 3.12375 14.875 3.25 C18 4 18 4 19.375 6.0625 C19.58125 6.701875 19.7875 7.34125 20 8 C19.01 7.34 18.02 6.68 17 6 C12.7524747 5.69108907 9.6413547 5.66953299 6 8 C4 5 4 5 4 1 C3.01 1 2.02 1 1 1 C1 13.54 1 26.08 1 39 C0.67 39 0.34 39 0 39 C0 26.13 0 13.26 0 0 Z " fill="#7F7F7F" transform="translate(277,370)"/>
<path d="M0 0 C0.66 0 1.32 0 2 0 C2.02505615 0.75394043 2.0501123 1.50788086 2.07592773 2.28466797 C2.56539636 16.86661538 3.09465069 31.43735999 4 46 C3.34 45.67 2.68 45.34 2 45 C-0.59335933 35.3005943 -0.24420864 25.13692328 -0.125 15.1875 C-0.11493652 13.70508426 -0.1058167 12.22266181 -0.09765625 10.74023438 C-0.07594075 7.16001326 -0.04160246 3.58005192 0 0 Z " fill="#CECCCD" transform="translate(6,155)"/>
<path d="M0 0 C0.66 0.33 1.32 0.66 2 1 C2.33 2.98 2.66 4.96 3 7 C-1.62 7 -6.24 7 -11 7 C-11 3 -11 3 -9.4375 1.25 C-6.15923291 -0.43116261 -3.63453952 -0.26922515 0 0 Z " fill="#E7E6E7" transform="translate(93,375)"/>
<path d="M0 0 C0.66 0.33 1.32 0.66 2 1 C3.05848634 4.17545903 3.16670878 6.54008796 3.1875 9.875 C3.20167969 10.90367187 3.21585937 11.93234375 3.23046875 12.9921875 C2.92064459 17.03565534 1.68550489 19.89723126 -0.4375 23.3125 C-4.52044748 26.00127029 -9.24984738 25.83693165 -14 25 C-14.66 24.01 -15.32 23.02 -16 22 C-15.01 22.33 -14.02 22.66 -13 23 C-11.43881572 23.06740865 -9.8749748 23.08514456 -8.3125 23.0625 C-7.50425781 23.05347656 -6.69601562 23.04445313 -5.86328125 23.03515625 C-5.24839844 23.02355469 -4.63351562 23.01195312 -4 23 C-3.34 21.68 -2.68 20.36 -2 19 C-3.65 19.66 -5.3 20.32 -7 21 C-6.360625 20.195625 -5.72125 19.39125 -5.0625 18.5625 C-2.40147674 14.64148693 -2.20593653 10.63357199 -2 6 C-1.67 6 -1.34 6 -1 6 C-1 9.63 -1 13.26 -1 17 C-0.34 17 0.32 17 1 17 C1.10477512 11.21408489 0.99250545 5.70690634 0 0 Z " fill="#6D6D6D" transform="translate(268,374)"/>
<path d="M0 0 C1.48828125 1.05078125 1.48828125 1.05078125 3 3 C3.29296875 6.35546875 3.29296875 6.35546875 3.1875 10.1875 C3.16042969 11.45980469 3.13335937 12.73210937 3.10546875 14.04296875 C3.07066406 15.01878906 3.03585937 15.99460937 3 17 C2.34 17 1.68 17 1 17 C0.67 17.99 0.34 18.98 0 20 C-0.66 20 -1.32 20 -2 20 C-2.33 20.99 -2.66 21.98 -3 23 C-6.47325181 24.1577506 -9.36067448 24.06866652 -13 24 C-13 23.67 -13 23.34 -13 23 C-10.03 22.67 -7.06 22.34 -4 22 C-4 21.34 -4 20.68 -4 20 C-7.63 20 -11.26 20 -15 20 C-15.33 19.34 -15.66 18.68 -16 18 C-15.39671875 18.05800781 -14.7934375 18.11601562 -14.171875 18.17578125 C-11.69629341 18.31553182 -9.4561015 18.35932638 -7 18 C-4.39089037 15.6816144 -4.39089037 15.6816144 -3 13 C-3 14.65 -3 16.3 -3 18 C-2.01 18 -1.02 18 0 18 C0.73030908 11.78675502 1.23180249 6.15901243 0 0 Z " fill="#707070" transform="translate(301,375)"/>
<path d="M0 0 C3.0625 2 3.0625 2 5 4 C4.67 4.66 4.34 5.32 4 6 C1 6 1 6 -1 5 C-3.04055005 4.92934383 -5.08334257 4.91578024 -7.125 4.9375 C-8.22070312 4.94652344 -9.31640625 4.95554687 -10.4453125 4.96484375 C-11.70988281 4.98224609 -11.70988281 4.98224609 -13 5 C-13 3.68 -13 2.36 -13 1 C-8.65931333 -0.21066771 -4.47972728 -0.61377046 0 0 Z " fill="#3A3A3A" transform="translate(121,370)"/>
<path d="M0 0 C0 0.33 0 0.66 0 1 C-1.09671021 1.08302368 -1.09671021 1.08302368 -2.21557617 1.16772461 C-5.53979998 1.42116206 -8.86364417 1.6792831 -12.1875 1.9375 C-13.91323242 2.06801758 -13.91323242 2.06801758 -15.67382812 2.20117188 C-16.78564453 2.28818359 -17.89746094 2.37519531 -19.04296875 2.46484375 C-20.06414795 2.543396 -21.08532715 2.62194824 -22.13745117 2.70288086 C-24.81260008 2.98054877 -27.36731038 3.46416242 -30 4 C-32.10323534 4.0659735 -34.20835724 4.08562245 -36.3125 4.0625 C-37.38113281 4.05347656 -38.44976562 4.04445313 -39.55078125 4.03515625 C-40.35902344 4.02355469 -41.16726562 4.01195312 -42 4 C-41.67 3.34 -41.34 2.68 -41 2 C-38.24665235 1.49939134 -35.5917037 1.14383945 -32.8125 0.875 C-31.56569458 0.74762451 -31.56569458 0.74762451 -30.29370117 0.61767578 C-20.21049123 -0.31009527 -10.1144157 -0.18685151 0 0 Z " fill="#6D6B6B" transform="translate(182,6)"/>
<path d="M0 0 C1.65 0 3.3 0 5 0 C5 2.64 5 5.28 5 8 C7.31 8 9.62 8 12 8 C12 9.32 12 10.64 12 12 C9.69 12 7.38 12 5 12 C5 17.94 5 23.88 5 30 C4.67 30 4.34 30 4 30 C4 20.43 4 10.86 4 1 C2.68 0.67 1.36 0.34 0 0 Z " fill="#696868" transform="translate(149,362)"/>
<path d="M0 0 C0.66 0.33 1.32 0.66 2 1 C-0.31384976 3.68585133 -2.1543075 4.55673115 -5.5625 5.4375 C-9.09087896 6.40209281 -12.30071283 7.54379012 -15.625 9.0625 C-22.42276848 11.90579739 -29.73074058 12.31456115 -37 13 C-33.54733123 10.69822082 -31.1380723 10.37307099 -27.0625 9.6875 C-19.90885142 8.38431596 -13.60240023 6.0731893 -7 3 C-4.6780453 1.93271556 -2.38160165 0.93193108 0 0 Z " fill="#A9A7A8" transform="translate(240,319)"/>
<path d="M0 0 C0.66 0 1.32 0 2 0 C2.185625 0.9590625 2.185625 0.9590625 2.375 1.9375 C2.684375 2.9584375 2.684375 2.9584375 3 4 C3.66 4.33 4.32 4.66 5 5 C4.67 5.99 4.34 6.98 4 8 C3.77674186 10.05893621 3.59294241 12.12233653 3.4375 14.1875 C3.35371094 15.27417969 3.26992187 16.36085938 3.18359375 17.48046875 C3.12300781 18.31191406 3.06242188 19.14335937 3 20 C2.01 20 1.02 20 0 20 C0 13.4 0 6.8 0 0 Z " fill="#212020" transform="translate(246,371)"/>
<path d="M0 0 C1.98 0 3.96 0 6 0 C6.99152726 2.32872458 7.96816007 4.6620497 8.9375 7 C9.21529297 7.64839844 9.49308594 8.29679687 9.77929688 8.96484375 C11.71480112 13.67534807 12.55251477 17.92472444 13 23 C9.70174293 20.60126758 9.2468073 17.72205487 8.4296875 13.9375 C7.99048358 11.79924432 7.99048358 11.79924432 7 9 C6.34 8.67 5.68 8.34 5 8 C4.67 9.32 4.34 10.64 4 12 C3.34 9.69 2.68 7.38 2 5 C2.66 5 3.32 5 4 5 C4.33 3.68 4.66 2.36 5 1 C3.35 1 1.7 1 0 1 C0 0.67 0 0.34 0 0 Z " fill="#5A5959" transform="translate(221,359)"/>
<path d="M0 0 C2 1 2 1 3.125 3.25 C4.00513321 6.01613295 4.1645438 8.12048351 4 11 C1.36 11 -1.28 11 -4 11 C-3.5247412 9.35303396 -3.04468109 7.70745272 -2.5625 6.0625 C-2.29566406 5.14597656 -2.02882812 4.22945313 -1.75390625 3.28515625 C-1 1 -1 1 0 0 Z " fill="#F8F6F7" transform="translate(223,371)"/>
<path d="M0 0 C4.875 0.875 4.875 0.875 6 2 C8.01594582 2.23427778 10.038474 2.41336124 12.0625 2.5625 C13.16722656 2.64628906 14.27195312 2.73007812 15.41015625 2.81640625 C16.26480469 2.87699219 17.11945313 2.93757813 18 3 C18 3.66 18 4.32 18 5 C14.54613484 6.72693258 10.78350236 6.36184502 7 6 C3.5 4.6875 3.5 4.6875 1 3 C0.67 2.01 0.34 1.02 0 0 Z " fill="#2B292A" transform="translate(80,392)"/>
<path d="M0 0 C0.66 0 1.32 0 2 0 C3.59412284 3.18824568 3.10174735 6.62896662 3.0625 10.125 C3.05798828 10.87910156 3.05347656 11.63320313 3.04882812 12.41015625 C3.03703499 14.27347127 3.01909942 16.13674555 3 18 C2.01 18 1.02 18 0 18 C0 12.06 0 6.12 0 0 Z " fill="#252525" transform="translate(187,380)"/>
<path d="M0 0 C0.474375 0.495 0.94875 0.99 1.4375 1.5 C5.16002963 3.67904173 8.77382564 3.57291448 13 3 C15.22060641 2.05225874 15.22060641 2.05225874 17 1 C16.42655063 3.86724686 16.1385485 4.8614515 14 7 C9.43739405 7.77089216 5.93412146 7.55284739 1.9375 5.1875 C0 3 0 3 0 0 Z " fill="#323131" transform="translate(250,391)"/>
<path d="M0 0 C0.66 0.33 1.32 0.66 2 1 C3.26968434 5.95586469 3.51109996 10.42093536 1 15 C0.01 15 -0.98 15 -2 15 C-1.85973717 12.68715544 -1.71264442 10.37472409 -1.5625 8.0625 C-1.48128906 6.77472656 -1.40007812 5.48695313 -1.31640625 4.16015625 C-1 1 -1 1 0 0 Z " fill="#282828" transform="translate(300,378)"/>
<path d="M0 0 C0.33 0 0.66 0 1 0 C1 7.59 1 15.18 1 23 C-0.98 22.67 -2.96 22.34 -5 22 C-5.99 22.33 -6.98 22.66 -8 23 C-9.39439664 23.06665376 -10.79169875 23.08538199 -12.1875 23.0625 C-14.0746875 23.0315625 -14.0746875 23.0315625 -16 23 C-16 22.67 -16 22.34 -16 22 C-14.98679687 21.80083984 -14.98679687 21.80083984 -13.953125 21.59765625 C-12.61507812 21.33275391 -12.61507812 21.33275391 -11.25 21.0625 C-10.36828125 20.88847656 -9.4865625 20.71445312 -8.578125 20.53515625 C-6.36764947 20.07631512 -4.18487932 19.56663926 -2 19 C-2 19.99 -2 20.98 -2 22 C-1.34 22 -0.68 22 0 22 C0 14.74 0 7.48 0 0 Z " fill="#6E6D6D" transform="translate(126,376)"/>
<path d="M0 0 C0.33 0.66 0.66 1.32 1 2 C1.66 2 2.32 2 3 2 C3 6.95 3 11.9 3 17 C2.01 17 1.02 17 0 17 C0 11.39 0 5.78 0 0 Z " fill="#232222" transform="translate(149,374)"/>
<path d="M0 0 C0 4.01780507 -0.80377829 5.57647792 -3 9 C-6.1957422 11.8560981 -9.55462254 14.45313561 -13 17 C-13 12.71066403 -10.43797802 10.87354581 -7.625 7.9375 C-7.11710937 7.39544922 -6.60921875 6.85339844 -6.0859375 6.29492188 C-4.08646546 4.1665365 -2.06495391 2.06495391 0 0 Z " fill="#BBBABA" transform="translate(73,67)"/>
<path d="M0 0 C3 1 3 1 4.125 3.125 C5.12243007 6.40227023 5.6002138 9.60181728 6 13 C5.34 13 4.68 13 4 13 C3.67 13.99 3.34 14.98 3 16 C-0.44419134 5.62642369 -0.44419134 5.62642369 0 0 Z " fill="#2F2D2E" transform="translate(226,367)"/>
<path d="M0 0 C1.98 0 3.96 0 6 0 C6 1.98 6 3.96 6 6 C5.67 5.34 5.34 4.68 5 4 C4.34 4 3.68 4 3 4 C2.67 6.31 2.34 8.62 2 11 C1.67 11 1.34 11 1 11 C0.67 9.35 0.34 7.7 0 6 C-0.66 7.32 -1.32 8.64 -2 10 C-3 8 -3 8 -2.44140625 6.0546875 C-2.15136719 5.33539063 -1.86132812 4.61609375 -1.5625 3.875 C-1.27503906 3.15054687 -0.98757812 2.42609375 -0.69140625 1.6796875 C-0.46324219 1.12539063 -0.23507813 0.57109375 0 0 Z " fill="#535152" transform="translate(220,360)"/>
<path d="M0 0 C2.31 0.66 4.62 1.32 7 2 C7 2.66 7 3.32 7 4 C9.64 4.33 12.28 4.66 15 5 C15 5.66 15 6.32 15 7 C16.670625 7.4021875 16.670625 7.4021875 18.375 7.8125 C22 9 22 9 24 12 C22.35153231 11.55123384 20.70626545 11.09069512 19.0625 10.625 C18.14597656 10.36976562 17.22945312 10.11453125 16.28515625 9.8515625 C14 9 14 9 13 7 C10.69 7 8.38 7 6 7 C5.67 6.01 5.34 5.02 5 4 C3.35857037 2.9590934 1.69287785 1.95495674 0 1 C0 0.67 0 0.34 0 0 Z " fill="#797878" transform="translate(233,18)"/>
<path d="M0 0 C0.66 0 1.32 0 2 0 C3.14077657 3.42232972 3.09815117 6.08673217 3.0625 9.6875 C3.05347656 10.86699219 3.04445312 12.04648437 3.03515625 13.26171875 C3.02355469 14.16535156 3.01195312 15.06898438 3 16 C2.01 16 1.02 16 0 16 C0 10.72 0 5.44 0 0 Z " fill="#201F1F" transform="translate(246,393)"/>
<path d="M0 0 C2 1.625 2 1.625 4 4 C4 5.98 4 7.96 4 10 C0.04 10 -3.92 10 -8 10 C-7.67 9.34 -7.34 8.68 -7 8 C-4.67843403 7.59270772 -2.3431213 7.25561323 0 7 C0 4.69 0 2.38 0 0 Z " fill="#211F20" transform="translate(96,375)"/>
<path d="M0 0 C4.95 0 9.9 0 15 0 C18.07692308 6.4 18.07692308 6.4 17.6875 9.4375 C17.460625 9.953125 17.23375 10.46875 17 11 C14 4.375 14 4.375 14 1 C6.47796033 0.9100796 6.47796033 0.9100796 0.3125 4.5625 C-0.120625 5.366875 -0.55375 6.17125 -1 7 C-0.67 4.69 -0.34 2.38 0 0 Z " fill="#BCBCBC" transform="translate(216,387)"/>
<path d="M0 0 C1.01382963 3.6208201 1.49897691 7.27811418 2 11 C2.66 9.68 3.32 8.36 4 7 C4.33 9.31 4.66 11.62 5 14 C4.01 14 3.02 14 2 14 C2.66 15.32 3.32 16.64 4 18 C1 17 1 17 -1 14 C-1.23046875 11.40625 -1.23046875 11.40625 -1.1875 8.5 C-1.18105469 7.5409375 -1.17460938 6.581875 -1.16796875 5.59375 C-1 3 -1 3 0 0 Z " fill="#5B5959" transform="translate(78,378)"/>
<path d="M0 0 C0.6328125 1.80859375 0.6328125 1.80859375 1 4 C-1.88322085 8.15523005 -4.49191078 10.62732146 -9 13 C-9.99 13.66 -10.98 14.32 -12 15 C-10.38462556 11.10082032 -7.72075127 8.28706228 -4.875 5.25 C-4.40707031 4.74339844 -3.93914062 4.23679687 -3.45703125 3.71484375 C-2.30873459 2.47280859 -1.15491328 1.23588506 0 0 Z " fill="#B9B8B8" transform="translate(301,271)"/>
<path d="M0 0 C0.56654297 0.72123047 0.56654297 0.72123047 1.14453125 1.45703125 C3.64531405 3.53662958 5.47306804 3.49841577 8.6875 3.6875 C9.68136719 3.75324219 10.67523438 3.81898438 11.69921875 3.88671875 C12.45847656 3.92410156 13.21773438 3.96148437 14 4 C14 4.66 14 5.32 14 6 C10.25941083 7.24686306 6.91177017 7.60306457 3 7 C1 5.1875 1 5.1875 0 3 C0 2.01 0 1.02 0 0 Z " fill="#434142" transform="translate(283,391)"/>
<path d="M0 0 C0.33 0 0.66 0 1 0 C1.33 4.62 1.66 9.24 2 14 C2.99 14 3.98 14 5 14 C4.67 14.33 4.34 14.66 4 15 C6.97 15.495 6.97 15.495 10 16 C10 16.33 10 16.66 10 17 C9.43410156 17.12117188 8.86820313 17.24234375 8.28515625 17.3671875 C7.55167969 17.53476562 6.81820312 17.70234375 6.0625 17.875 C4.96615234 18.11863281 4.96615234 18.11863281 3.84765625 18.3671875 C1.79299706 18.82961523 1.79299706 18.82961523 1 21 C-0.11165232 16.5621439 -0.11527763 12.23043614 -0.0625 7.6875 C-0.05798828 6.94693359 -0.05347656 6.20636719 -0.04882812 5.44335938 C-0.03712175 3.62887101 -0.01918898 1.81442466 0 0 Z " fill="#7B7B7B" transform="translate(172,358)"/>
<path d="M0 0 C0.99 0.33 1.98 0.66 3 1 C3.75612577 6.23471686 4.2063366 10.77254141 3 16 C2.34 16 1.68 16 1 16 C0.67 10.72 0.34 5.44 0 0 Z " fill="#242424" transform="translate(266,375)"/>
<path d="M0 0 C2.64 0 5.28 0 8 0 C8 3 8 3 6 6 C5.67 5.67 5.34 5.34 5 5 C2.67182036 4.63239269 0.3381615 4.29758419 -2 4 C-1.34 2.68 -0.68 1.36 0 0 Z " fill="#454545" transform="translate(177,370)"/>
<path d="M0 0 C-4.3634585 2.38250188 -8.3882645 3.73627643 -13.25 4.75 C-15.08304688 5.14445312 -15.08304688 5.14445312 -16.953125 5.546875 C-20 6 -20 6 -22 5 C-16.69659922 2.91652112 -11.53523601 1.33609145 -6 0 C-3.50907189 -1.24546405 -2.58919267 -0.7767578 0 0 Z " fill="#747474" transform="translate(136,11)"/>
<path d="M0 0 C0 4.16751495 -2.23872302 6.14170518 -5 9 C-6.63072616 10.37705764 -8.2866438 11.72722111 -10 13 C-10.66 12.67 -11.32 12.34 -12 12 C-8.90644332 6.58627581 -5.11672973 3.50222763 0 0 Z " fill="#D9D9D9" transform="translate(291,284)"/>
<path d="M0 0 C1.48828125 1.05078125 1.48828125 1.05078125 3 3 C3.29296875 6.35546875 3.29296875 6.35546875 3.1875 10.1875 C3.16042969 11.45980469 3.13335937 12.73210937 3.10546875 14.04296875 C3.07066406 15.01878906 3.03585937 15.99460937 3 17 C2.34 17 1.68 17 1 17 C0.67 17.99 0.34 18.98 0 20 C-0.33 19.34 -0.66 18.68 -1 18 C-0.68289063 17.27425781 -0.36578125 16.54851562 -0.0390625 15.80078125 C1.24930746 12.32799455 0.99551645 9.85561286 0.625 6.1875 C0.51414062 5.02605469 0.40328125 3.86460937 0.2890625 2.66796875 C0.19367188 1.78753906 0.09828125 0.90710938 0 0 Z " fill="#A2A2A2" transform="translate(301,375)"/>
<path d="M0 0 C0.79921875 0.00902344 1.5984375 0.01804687 2.421875 0.02734375 C3.02515625 0.03894531 3.6284375 0.05054688 4.25 0.0625 C4.25 0.3925 4.25 0.7225 4.25 1.0625 C1.94 1.3925 -0.37 1.7225 -2.75 2.0625 C-1.43 2.7225 -0.11 3.3825 1.25 4.0625 C-2.05 4.3925 -5.35 4.7225 -8.75 5.0625 C-8.75 3.7425 -8.75 2.4225 -8.75 1.0625 C-5.75519083 0.1901588 -3.11424089 -0.04579766 0 0 Z " fill="#686868" transform="translate(116.75,369.9375)"/>
<path d="M0 0 C1.78139294 3.23606752 2.77180919 6.42657245 3.6875 10 C3.95949219 11.03125 4.23148438 12.0625 4.51171875 13.125 C4.98122716 15.88946552 4.93214283 17.39750728 4 20 C-0.01984912 13.97022631 -0.25729264 7.07554765 0 0 Z " fill="#C2C0C1" transform="translate(10,201)"/>
<path d="M0 0 C2 3 2 3 1.625 6.1875 C1.41875 7.115625 1.2125 8.04375 1 9 C0.01 9 -0.98 9 -2 9 C-2.33 9.99 -2.66 10.98 -3 12 C-3.66 12 -4.32 12 -5 12 C-4.54738642 10.56068883 -4.08767021 9.12361001 -3.625 7.6875 C-3.24214844 6.48673828 -3.24214844 6.48673828 -2.8515625 5.26171875 C-2 3 -2 3 0 0 Z " fill="#424141" transform="translate(26,94)"/>
<path d="M0 0 C4 4.5 4 4.5 4 9 C2.68 9 1.36 9 0 9 C-0.87890625 2.84765625 -0.87890625 2.84765625 -1 1 C-0.67 0.67 -0.34 0.34 0 0 Z " fill="#292828" transform="translate(234,389)"/>
<path d="M0 0 C1.32 0 2.64 0 4 0 C4 0.99 4 1.98 4 3 C5.65 2.34 7.3 1.68 9 1 C8.01 3.31 7.02 5.62 6 8 C5.67 7.34 5.34 6.68 5 6 C4.01 5.67 3.02 5.34 2 5 C2 3.68 2 2.36 2 1 C1.34 0.67 0.68 0.34 0 0 Z " fill="#565656" transform="translate(246,370)"/>
<path d="M0 0 C0.66 0.33 1.32 0.66 2 1 C-1.51582826 5.66283606 -4.03648545 8.72210402 -10 10 C-6.92118304 6.12948725 -3.99926986 2.97088618 0 0 Z " fill="#BBBABA" transform="translate(84,57)"/>
<path d="M0 0 C2.29633824 3.44450737 2.54016485 5.93812283 3 10 C2.01 9.01 1.02 8.02 0 7 C-0.66 8.65 -1.32 10.3 -2 12 C-3.12377697 8.69564916 -2.89554742 6.9493138 -1.5625 3.75 C-1.27503906 3.04359375 -0.98757812 2.3371875 -0.69140625 1.609375 C-0.46324219 1.07828125 -0.23507813 0.5471875 0 0 Z " fill="#C4C1C2" transform="translate(223,365)"/>
<path d="M0 0 C0 4.09089094 -1.69866948 5.44918487 -4.33203125 8.4140625 C-6.36890116 10.35075848 -8.29054445 11.28279118 -11 12 C-7.49102731 7.81576108 -3.91939465 3.80411834 0 0 Z " fill="#5F5E5E" transform="translate(276,267)"/>
<path d="M0 0 C4.6875 3.61328125 4.6875 3.61328125 6 5 C6 5.99 6 6.98 6 8 C6.99 8.33 7.98 8.66 9 9 C8.01 9.33 7.02 9.66 6 10 C5.34 9.67 4.68 9.34 4 9 C4 7.68 4 6.36 4 5 C2.68 5.33 1.36 5.66 0 6 C0 4.02 0 2.04 0 0 Z " fill="#CFCECF" transform="translate(276,74)"/>
<path d="M0 0 C1.4606285 2.64738916 2 3.89448334 2 7 C0.68 7 -0.64 7 -2 7 C-2.33 7.66 -2.66 8.32 -3 9 C-2.25 2.25 -2.25 2.25 0 0 Z " fill="#212121" transform="translate(216,379)"/>
<path d="M0 0 C2.96829447 3.3730619 4.06350475 6.62968884 5 11 C4.625 13.4375 4.625 13.4375 4 15 C2.25674553 12.3851183 1.58412043 10.9946567 0.875 8.0625 C0.70742187 7.39347656 0.53984375 6.72445313 0.3671875 6.03515625 C0 4 0 4 0 0 Z " fill="#898888" transform="translate(229,367)"/>
<path d="M0 0 C0.66 0.33 1.32 0.66 2 1 C0.1875 3.5 0.1875 3.5 -2 6 C-2.99 6 -3.98 6 -5 6 C-5 6.66 -5 7.32 -5 8 C-6.32 7.67 -7.64 7.34 -9 7 C-7.88625 6.38125 -7.88625 6.38125 -6.75 5.75 C-4.09828315 4.06254382 -2.13325986 2.29127911 0 0 Z " fill="#555454" transform="translate(262,280)"/>
<path d="M0 0 C0.66 0 1.32 0 2 0 C1.29771949 4.49459524 -0.00087613 8.90610041 -2 13 C-2.99 13.495 -2.99 13.495 -4 14 C-3.52188823 12.22888156 -3.0424722 10.45811517 -2.5625 8.6875 C-2.29566406 7.70136719 -2.02882813 6.71523437 -1.75390625 5.69921875 C-1.21920575 3.78482474 -0.62855462 1.88566385 0 0 Z " fill="#6B696A" transform="translate(319,237)"/>
<path d="M0 0 C0.66 0.33 1.32 0.66 2 1 C1.071875 1.3403125 1.071875 1.3403125 0.125 1.6875 C-2.22088583 2.84019791 -2.22088583 2.84019791 -2.9375 5.4375 C-4.29998979 8.72350479 -5.80537511 9.5624188 -9 11 C-9.66 10.67 -10.32 10.34 -11 10 C-10.54109375 9.61328125 -10.0821875 9.2265625 -9.609375 8.828125 C-6.274919 5.99804049 -3.03498697 3.15638645 0 0 Z " fill="#696868" transform="translate(67,43)"/>
<path d="M0 0 C0.33 0 0.66 0 1 0 C0.88512252 1.58409994 0.75765492 3.16728963 0.625 4.75 C0.52058594 6.07257813 0.52058594 6.07257813 0.4140625 7.421875 C0 10 0 10 -2 14 C-2 10.37 -2 6.74 -2 3 C-1.34 3 -0.68 3 0 3 C0 2.01 0 1.02 0 0 Z " fill="#555253" transform="translate(33,131)"/>
<path d="M0 0 C2 1 2 1 2.8515625 3.50390625 C3.10679687 4.51324219 3.36203125 5.52257812 3.625 6.5625 C3.88539063 7.57441406 4.14578125 8.58632812 4.4140625 9.62890625 C4.60742188 10.41136719 4.80078125 11.19382812 5 12 C1.92056849 9.94704566 1.20706879 9.34265205 0 6 C-0.125 2.75 -0.125 2.75 0 0 Z " fill="#A1A0A0" transform="translate(303,115)"/>
<path d="M0 0 C3.82669043 3.42388092 5.72278474 6.00724943 7 11 C6.34 11 5.68 11 5 11 C3 8 3 8 3 5 C2.01 4.67 1.02 4.34 0 4 C0 2.68 0 1.36 0 0 Z " fill="#BAB8B9" transform="translate(289,90)"/>
<path d="M0 0 C0 3.33156142 -0.45664761 5.06028115 -2 8 C-4.625 9.8125 -4.625 9.8125 -7 11 C-5.22054913 6.95579349 -2.60470327 3.53921513 0 0 Z " fill="#6B6969" transform="translate(39,73)"/>
<path d="M0 0 C3.63 0 7.26 0 11 0 C11 0.66 11 1.32 11 2 C9.02 2.33 7.04 2.66 5 3 C5 2.34 5 1.68 5 1 C3.35 1 1.7 1 0 1 C0 0.67 0 0.34 0 0 Z " fill="#383637" transform="translate(87,395)"/>
<path d="M0 0 C0.8125 1.6875 0.8125 1.6875 1 4 C-1.4375 6.75 -1.4375 6.75 -4 9 C-4 5.00095031 -2.27413033 3.19799578 0 0 Z " fill="#707070" transform="translate(291,247)"/>
<path d="M0 0 C0.99 0.33 1.98 0.66 3 1 C-0.3 3.64 -3.6 6.28 -7 9 C-7 6 -7 6 -5.57421875 4.359375 C-4.95160156 3.82828125 -4.32898437 3.2971875 -3.6875 2.75 C-3.07261719 2.20859375 -2.45773438 1.6671875 -1.82421875 1.109375 C-1.22222656 0.74328125 -0.62023437 0.3771875 0 0 Z " fill="#DADADA" transform="translate(67,75)"/>
<path d="M0 0 C1.41791408 0.45445964 2.83428046 0.91374944 4.25 1.375 C5.43335938 1.75785156 5.43335938 1.75785156 6.640625 2.1484375 C8.86627958 2.95173667 10.90931672 3.89711662 13 5 C12.67 5.66 12.34 6.32 12 7 C8.04 5.35 4.08 3.7 0 2 C0 1.34 0 0.68 0 0 Z " fill="#ACABAB" transform="translate(233,42)"/>
<path d="M0 0 C0.98120464 3.05263664 0.98120464 4.94736336 0 8 C-0.99 8 -1.98 8 -3 8 C-2.25 2.25 -2.25 2.25 0 0 Z " fill="#252525" transform="translate(212,390)"/>
<path d="M0 0 C2 1.75 2 1.75 4 4 C4 5.32 4 6.64 4 8 C3.01 7.67 2.02 7.34 1 7 C0.67 4.69 0.34 2.38 0 0 Z " fill="#2B2B2B" transform="translate(96,375)"/>
<path d="M0 0 C0.99 0 1.98 0 3 0 C2.34 2.64 1.68 5.28 1 8 C0.67 6.68 0.34 5.36 0 4 C-0.66 4 -1.32 4 -2 4 C-1.34 2.68 -0.68 1.36 0 0 Z " fill="#363636" transform="translate(81,374)"/>
<path d="M0 0 C0.99 0.33 1.98 0.66 3 1 C3 2.98 3 4.96 3 7 C2.01 6.67 1.02 6.34 0 6 C0 4.02 0 2.04 0 0 Z " fill="#282627" transform="translate(226,367)"/>
<path d="M0 0 C0 0.66 0 1.32 0 2 C-6.625 3.25 -6.625 3.25 -10 1 C-6.56484998 0.37542727 -3.50935186 0 0 0 Z " fill="#262526" transform="translate(297,395)"/>
<path d="M0 0 C1.65 0 3.3 0 5 0 C5 1.98 5 3.96 5 6 C4.67 5.01 4.34 4.02 4 3 C2.68 3 1.36 3 0 3 C0 2.01 0 1.02 0 0 Z " fill="#252424" transform="translate(221,360)"/>
<path d="M0 0 C-3.00617269 3.00617269 -5.82381598 2.59585316 -10 3 C-6.74534559 -0.25465441 -4.4822096 -1.60078914 0 0 Z " fill="#B8B5B6" transform="translate(252,316)"/>
<path d="M0 0 C2.4375 0.8125 2.4375 0.8125 5 2 C5.33 2.99 5.66 3.98 6 5 C6.66 5.33 7.32 5.66 8 6 C7.01 6 6.02 6 5 6 C5 5.34 5 4.68 5 4 C3.35 3.67 1.7 3.34 0 3 C0 2.01 0 1.02 0 0 Z " fill="#6D6B6C" transform="translate(88,286)"/>
<path d="M0 0 C5.57142857 5.14285714 5.57142857 5.14285714 6 9 C5.01 8.67 4.02 8.34 3 8 C2.67 7.01 2.34 6.02 2 5 C1.34 4.67 0.68 4.34 0 4 C0 2.68 0 1.36 0 0 Z " fill="#605F5F" transform="translate(307,78)"/>
<path d="M0 0 C-0.33 1.65 -0.66 3.3 -1 5 C-4.16115776 3.63016497 -4.9927092 3.0109362 -7 0 C-2.25 -1.125 -2.25 -1.125 0 0 Z " fill="#4C4C4C" transform="translate(263,55)"/>
<path d="M0 0 C3.125 -0.1875 3.125 -0.1875 6 0 C6.33 0.66 6.66 1.32 7 2 C2.545 2.495 2.545 2.495 -2 3 C-1.34 2.01 -0.68 1.02 0 0 Z " fill="#2A2A2A" transform="translate(255,371)"/>
<path d="M0 0 C2.29633824 3.44450737 2.54016485 5.93812283 3 10 C2.67 9.34 2.34 8.68 2 8 C1.34 8 0.68 8 0 8 C0 5.36 0 2.72 0 0 Z " fill="#514F50" transform="translate(325,112)"/>
<path d="M0 0 C0.33 0.66 0.66 1.32 1 2 C0.06694014 4.71435596 -0.62673377 5.78043163 -3.125 7.25 C-3.74375 7.4975 -4.3625 7.745 -5 8 C-3.8141763 4.62496331 -2.72426311 2.35277269 0 0 Z " fill="#717071" transform="translate(45,65)"/>
<path d="M0 0 C0.66 0.99 1.32 1.98 2 3 C-1.73487777 2.5020163 -3.81237635 2.12508244 -7 0 C-3.86559131 -1.0448029 -2.97903963 -1.15317663 0 0 Z " fill="#3C3A3B" transform="translate(216,32)"/>
</svg>
